<?xml version="1.0" standalone="no"?>
<!DOCTYPE svg PUBLIC "-//W3C//DTD SVG 20010904//EN"
 "http://www.w3.org/TR/2001/REC-SVG-20010904/DTD/svg10.dtd">
<svg version="1.0" xmlns="http://www.w3.org/2000/svg"
 width="2440.000000pt" height="682.000000pt" viewBox="0 0 2440.000000 682.000000"
 preserveAspectRatio="xMidYMid meet">

<g transform="translate(0.000000,682.000000) scale(0.100000,-0.100000)"
fill="#1f93ec" stroke="none">
<path d="M20845 6794 c-106 -26 -201 -81 -285 -164 -81 -81 -124 -151 -161
-265 -19 -57 -23 -91 -23 -180 0 -96 4 -121 30 -195 37 -106 86 -181 168 -258
120 -112 251 -165 411 -166 114 -1 181 13 280 59 168 77 297 236 340 418 19
81 19 217 0 292 -56 221 -239 404 -460 460 -74 19 -220 18 -300 -1z m387 -315
c33 -23 48 -24 93 -5 42 18 44 8 8 -35 l-27 -32 39 7 40 8 -37 -39 c-25 -25
-38 -48 -38 -65 0 -99 -58 -235 -134 -312 -134 -137 -354 -175 -520 -89 l-39
20 58 6 c31 3 82 18 112 33 l56 27 -37 12 c-39 14 -61 28 -88 60 -26 31 -22
45 15 46 31 0 31 0 7 10 -50 20 -100 84 -100 128 0 17 4 19 32 10 17 -5 34 -6
37 -4 2 3 -1 5 -7 5 -6 0 -23 20 -38 45 -22 38 -26 55 -22 96 3 27 8 52 11 56
4 3 26 -12 50 -34 59 -54 121 -89 192 -107 91 -24 95 -23 95 27 0 118 146 193
242 126z"/>
<path d="M2040 6613 c-36 -14 -72 -48 -91 -86 -44 -86 -4 -199 82 -236 l39
-16 0 -112 0 -113 -357 0 c-327 0 -362 -2 -398 -19 -46 -21 -79 -54 -94 -94
-6 -16 -11 -86 -11 -157 l0 -128 -32 -7 c-118 -25 -218 -151 -218 -275 0 -126
97 -249 218 -275 l32 -7 0 -131 c0 -151 9 -180 73 -231 l39 -31 231 0 232 0 0
25 0 25 -217 5 c-200 5 -219 7 -245 26 -15 11 -34 32 -40 45 -18 35 -18 1063
0 1099 7 13 28 35 46 47 l34 23 736 0 c681 0 739 -1 771 -18 71 -35 70 -26 70
-602 0 -470 -2 -518 -18 -550 -27 -55 -68 -70 -195 -70 -87 0 -109 -3 -113
-15 -14 -35 14 -45 128 -45 212 0 257 48 258 271 l0 125 53 17 c70 22 129 74
163 144 75 152 -4 340 -163 390 l-53 17 0 123 c0 166 -20 215 -105 254 -36 17
-72 19 -402 19 l-363 0 0 110 0 110 46 21 c128 61 135 240 13 308 -36 20 -113
27 -149 14z m119 -68 c16 -8 36 -31 46 -51 35 -74 -17 -154 -99 -154 -48 0
-80 19 -101 60 -20 39 -19 69 5 108 31 51 93 66 149 37z m-949 -1176 l0 -220
-22 7 c-94 28 -168 123 -168 214 0 45 29 113 63 149 28 29 97 70 120 71 4 0 7
-99 7 -221z m1890 173 c139 -113 95 -335 -77 -387 l-23 -6 0 220 0 220 32 -10
c18 -5 48 -22 68 -37z"/>
<path d="M1676 5680 c-84 -26 -131 -133 -91 -209 38 -74 115 -105 191 -76 87
33 123 141 73 222 -33 54 -111 82 -173 63z m79 -64 c37 -16 55 -42 55 -81 0
-90 -125 -123 -165 -44 -8 15 -15 35 -15 43 0 30 23 65 54 80 38 19 30 19 71
2z"/>
<path d="M2420 5668 c-103 -53 -113 -192 -18 -259 43 -31 125 -32 165 -3 50
38 68 71 68 129 0 117 -112 186 -215 133z m130 -74 c54 -52 12 -148 -64 -148
-95 0 -121 131 -34 169 39 17 64 11 98 -21z"/>
<path d="M10708 3983 l-3 -1388 -28 -90 c-57 -182 -139 -309 -273 -419 -136
-112 -295 -166 -489 -166 -101 0 -119 3 -220 38 -293 100 -445 295 -522 666
l-18 86 -309 0 -309 0 6 -157 c4 -115 11 -181 27 -243 27 -108 122 -304 190
-394 196 -258 527 -444 865 -487 132 -16 590 -7 706 15 94 17 235 64 314 104
255 128 500 439 589 744 57 196 56 174 56 1687 l0 1391 -290 0 -290 0 -2
-1387z"/>
<path d="M11600 3785 l0 -1585 408 0 c224 -1 1276 0 2337 0 2087 1 2004 -1
2112 54 86 43 129 105 166 234 21 76 22 87 25 1045 l3 967 -316 0 -315 0 0
-905 0 -905 -207 2 -208 3 -3 903 -2 902 -310 0 -310 0 -2 -902 -3 -903 -217
-3 -218 -2 0 905 0 905 -320 0 -320 0 0 -905 0 -905 -250 0 -250 0 0 905 0
905 -320 0 -320 0 0 -905 0 -905 -270 0 -270 0 0 1340 0 1340 -310 0 -310 0 0
-1585z"/>
<path d="M14068 5351 c-188 -62 -289 -271 -226 -470 27 -86 114 -177 202 -210
150 -56 302 -30 410 69 186 171 134 492 -96 595 -83 37 -206 44 -290 16z"/>
<path d="M15143 5351 c-114 -39 -187 -115 -224 -234 -40 -130 -10 -275 74
-360 148 -147 398 -154 540 -14 203 200 116 540 -155 613 -72 19 -172 17 -235
-5z"/>
<path d="M16148 5351 c-187 -61 -288 -266 -229 -462 20 -63 31 -81 84 -134
213 -213 570 -115 637 174 38 161 -50 337 -204 407 -79 36 -205 43 -288 15z"/>
<path d="M1834 5035 c-4 -8 -4 -22 0 -30 5 -13 42 -15 273 -13 l268 3 0 25 0
25 -268 3 c-231 2 -268 0 -273 -13z"/>
<path d="M1964 4735 c-13 -34 3 -45 69 -45 68 0 93 13 81 44 -9 22 -142 24
-150 1z"/>
<path d="M2292 4723 c3 -28 4 -28 73 -28 68 0 70 1 70 25 0 24 -3 25 -73 28
l-73 3 3 -28z"/>
<path d="M7360 3600 l0 -910 -245 0 -245 0 0 905 0 906 -682 -3 -683 -3 -88
-28 c-267 -83 -431 -232 -546 -494 -94 -217 -133 -466 -112 -711 20 -222 65
-383 159 -565 132 -256 315 -408 569 -473 92 -23 109 -24 431 -24 l335 0 -7
-72 c-10 -107 -44 -171 -109 -208 l-52 -30 -572 0 -573 0 0 -251 0 -250 703 4
c631 3 709 5 772 21 216 55 357 182 422 380 22 70 27 103 31 243 l4 162 427 3
c417 3 427 4 483 26 68 27 129 89 166 170 l27 57 3 1028 2 1027 -310 0 -310 0
0 -910z m-1110 -250 l0 -660 -256 0 -256 0 -59 32 c-91 48 -178 147 -239 270
-73 151 -93 249 -87 418 3 80 11 160 21 195 42 155 131 269 263 338 125 65
126 66 381 66 l232 1 0 -660z"/>
<path d="M10 3660 c0 -945 -1 -927 72 -1080 58 -120 178 -240 298 -298 155
-75 101 -72 1190 -72 l975 0 525 -406 525 -405 3 405 2 406 28 5 c133 28 229
71 317 142 110 89 189 209 231 349 17 54 18 129 21 927 l4 867 -336 0 -335 0
0 -720 c0 -787 2 -760 -58 -824 -15 -16 -49 -39 -77 -52 l-50 -24 -1225 0
c-1212 0 -1225 1 -1270 21 -58 26 -87 53 -116 111 l-24 47 0 721 0 720 -350 0
-350 0 0 -840z"/>
<path d="M1494 4489 c-63 -14 -144 -69 -186 -124 -54 -72 -73 -133 -73 -240 0
-78 4 -97 28 -147 32 -65 103 -134 174 -169 42 -21 62 -24 163 -24 105 0 120
2 171 28 67 32 142 109 172 175 18 38 22 65 22 147 0 87 -3 107 -27 157 -29
62 -97 136 -149 164 -80 41 -200 54 -295 33z"/>
<path d="M2473 4479 c-79 -25 -158 -94 -198 -176 -24 -49 -29 -73 -33 -153 -3
-80 0 -104 18 -153 27 -72 97 -144 177 -184 54 -26 67 -28 173 -28 102 0 121
3 165 25 71 35 148 117 176 187 33 86 32 208 -3 284 -30 65 -86 131 -140 166
-86 53 -225 67 -335 32z"/>
<path d="M17663 4475 c-311 -80 -507 -275 -622 -620 -56 -170 -66 -239 -66
-470 1 -178 4 -225 23 -312 59 -269 178 -500 335 -650 89 -84 185 -141 317
-185 l95 -33 358 -3 357 -3 0 -44 c0 -65 -18 -140 -44 -177 -12 -18 -44 -45
-71 -60 l-50 -28 -572 0 -573 0 0 -250 0 -251 713 3 712 3 90 28 c121 38 179
71 253 144 44 43 72 83 97 135 54 114 67 176 72 345 l5 153 1417 0 c1531 0
1491 -1 1599 54 62 32 116 93 143 165 47 123 49 176 49 1159 l0 922 -315 0
-315 0 0 -905 0 -905 -207 2 -208 3 -3 903 -2 902 -310 0 -310 0 -2 -902 -3
-903 -217 -3 -218 -2 0 905 0 905 -320 0 -320 0 0 -905 0 -904 -230 0 -230 0
0 904 0 905 -667 0 -668 -1 -92 -24z m797 -1125 l0 -660 -254 0 c-251 0 -253
0 -300 25 -109 58 -188 148 -257 291 -69 146 -98 316 -79 474 32 262 142 414
364 501 70 28 74 28 299 29 l227 0 0 -660z"/>
<path d="M23610 4084 c-167 -44 -332 -176 -403 -324 -172 -359 2 -766 380
-886 77 -24 236 -29 318 -10 120 29 208 78 300 170 128 127 185 263 185 441 0
115 -20 198 -71 297 -79 150 -238 274 -400 313 -80 18 -237 18 -309 -1z m248
-204 c102 -24 202 -96 260 -187 73 -116 82 -268 21 -392 -61 -123 -170 -206
-306 -230 -70 -13 -123 -8 -208 21 l-60 20 -104 -27 c-57 -14 -105 -25 -106
-23 -1 2 11 48 26 103 l29 100 -22 50 c-33 75 -37 221 -9 296 76 201 279 315
479 269z"/>
<path d="M23673 3806 c-155 -51 -245 -173 -245 -333 1 -57 6 -85 28 -134 28
-61 28 -61 12 -120 -18 -67 -19 -66 59 -45 49 13 56 13 93 -5 168 -81 375 -9
457 160 24 48 28 68 28 146 0 76 -4 98 -26 145 -33 70 -99 136 -168 168 -67
31 -175 39 -238 18z m-16 -148 c5 -7 17 -32 27 -55 18 -41 18 -42 -3 -71 l-21
-30 41 -46 c23 -26 59 -56 81 -67 l40 -21 27 31 26 31 54 -25 c49 -23 53 -27
47 -53 -9 -37 -54 -72 -93 -72 -69 0 -144 39 -219 114 -76 77 -104 125 -104
178 0 66 67 126 97 86z"/>
<path d="M7413 2110 c-171 -36 -284 -198 -270 -390 11 -170 127 -292 305 -321
228 -38 417 108 430 332 10 169 -80 313 -228 364 -55 19 -180 27 -237 15z"/>
<path d="M12360 2104 c-106 -28 -195 -113 -236 -224 -24 -65 -24 -191 0 -260
26 -75 119 -169 196 -197 163 -61 331 -26 435 90 117 130 119 350 4 481 -95
108 -249 150 -399 110z"/>
<path d="M13509 2107 c-103 -29 -181 -96 -228 -197 -23 -48 -26 -68 -26 -160
0 -89 3 -112 23 -151 38 -77 87 -125 169 -166 71 -35 82 -37 167 -37 104 0
148 12 225 62 64 42 123 128 141 203 7 29 10 83 8 124 -12 189 -150 319 -349
330 -53 3 -101 0 -130 -8z"/>
<path d="M20875 1295 c-311 -58 -525 -300 -525 -593 0 -152 56 -286 167 -402
l72 -74 3 -112 3 -111 107 60 108 59 69 -12 c40 -8 108 -11 162 -8 279 15 508
193 585 453 25 85 24 220 -4 310 -69 226 -271 394 -522 434 -82 14 -137 13
-225 -4z m136 -510 c45 -47 85 -85 89 -85 4 0 59 29 121 64 199 111 193 109
122 30 -34 -38 -112 -121 -172 -184 l-110 -115 -83 88 -83 88 -152 -85 c-84
-46 -153 -82 -153 -79 0 4 333 362 337 363 2 0 39 -38 84 -85z"/>
</g>
</svg>
